<mxfile host="app.diagrams.net" agent="Mozilla/5.0 (Windows NT 10.0; Win64; x64) AppleWebKit/537.36 (KHTML, like Gecko) Chrome/129.0.0.0 Safari/537.36" version="24.7.17">
  <diagram name="PÃ¡gina-1" id="kMsXeV2OVkawjESqdthg">
    <mxGraphModel dx="1235" dy="768" grid="1" gridSize="10" guides="1" tooltips="1" connect="1" arrows="1" fold="1" page="1" pageScale="1" pageWidth="827" pageHeight="1169" math="0" shadow="0">
      <root>
        <mxCell id="0" />
        <mxCell id="1" parent="0" />
        <mxCell id="W88fAptLdFSlkXJ4jm0--39" value="" style="edgeStyle=orthogonalEdgeStyle;rounded=0;orthogonalLoop=1;jettySize=auto;html=1;" parent="1" source="W88fAptLdFSlkXJ4jm0--23" target="W88fAptLdFSlkXJ4jm0--28" edge="1">
          <mxGeometry relative="1" as="geometry" />
        </mxCell>
        <mxCell id="W88fAptLdFSlkXJ4jm0--23" value="Inicio" style="ellipse;whiteSpace=wrap;html=1;" parent="1" vertex="1">
          <mxGeometry x="90" y="13.129999999999999" width="120" height="70" as="geometry" />
        </mxCell>
        <mxCell id="W88fAptLdFSlkXJ4jm0--40" value="" style="edgeStyle=orthogonalEdgeStyle;rounded=0;orthogonalLoop=1;jettySize=auto;html=1;" parent="1" source="W88fAptLdFSlkXJ4jm0--28" target="W88fAptLdFSlkXJ4jm0--6" edge="1">
          <mxGeometry relative="1" as="geometry" />
        </mxCell>
        <mxCell id="W88fAptLdFSlkXJ4jm0--28" value="Ler P1,P2,P3,P4" style="shape=parallelogram;perimeter=parallelogramPerimeter;whiteSpace=wrap;html=1;fixedSize=1;" parent="1" vertex="1">
          <mxGeometry x="80" y="130" width="140" height="60" as="geometry" />
        </mxCell>
        <mxCell id="W88fAptLdFSlkXJ4jm0--6" value="P1+P2+P3+P4/4" style="rounded=0;whiteSpace=wrap;html=1;" parent="1" vertex="1">
          <mxGeometry x="80" y="240" width="140" height="60" as="geometry" />
        </mxCell>
        <mxCell id="W88fAptLdFSlkXJ4jm0--9" value="" style="edgeStyle=orthogonalEdgeStyle;rounded=0;orthogonalLoop=1;jettySize=auto;html=1;" parent="1" source="W88fAptLdFSlkXJ4jm0--6" target="W88fAptLdFSlkXJ4jm0--8" edge="1">
          <mxGeometry relative="1" as="geometry" />
        </mxCell>
        <mxCell id="W88fAptLdFSlkXJ4jm0--8" value="Escreve media" style="shape=parallelogram;perimeter=parallelogramPerimeter;whiteSpace=wrap;html=1;fixedSize=1;" parent="1" vertex="1">
          <mxGeometry x="80" y="340" width="140" height="60" as="geometry" />
        </mxCell>
        <mxCell id="W88fAptLdFSlkXJ4jm0--11" value="" style="edgeStyle=orthogonalEdgeStyle;rounded=0;orthogonalLoop=1;jettySize=auto;html=1;" parent="1" source="W88fAptLdFSlkXJ4jm0--8" target="W88fAptLdFSlkXJ4jm0--10" edge="1">
          <mxGeometry relative="1" as="geometry" />
        </mxCell>
        <mxCell id="W88fAptLdFSlkXJ4jm0--10" value="Fim" style="ellipse;whiteSpace=wrap;html=1;" parent="1" vertex="1">
          <mxGeometry x="80" y="440" width="140" height="80" as="geometry" />
        </mxCell>
        <mxCell id="W88fAptLdFSlkXJ4jm0--41" value="" style="edgeStyle=orthogonalEdgeStyle;rounded=0;orthogonalLoop=1;jettySize=auto;html=1;" parent="1" source="W88fAptLdFSlkXJ4jm0--36" target="W88fAptLdFSlkXJ4jm0--37" edge="1">
          <mxGeometry relative="1" as="geometry" />
        </mxCell>
        <mxCell id="W88fAptLdFSlkXJ4jm0--36" value="Inicio" style="ellipse;whiteSpace=wrap;html=1;" parent="1" vertex="1">
          <mxGeometry x="298.75" y="13.129999999999999" width="122.5" height="73.75" as="geometry" />
        </mxCell>
        <mxCell id="W88fAptLdFSlkXJ4jm0--43" value="" style="edgeStyle=orthogonalEdgeStyle;rounded=0;orthogonalLoop=1;jettySize=auto;html=1;" parent="1" source="W88fAptLdFSlkXJ4jm0--37" target="W88fAptLdFSlkXJ4jm0--42" edge="1">
          <mxGeometry relative="1" as="geometry" />
        </mxCell>
        <mxCell id="W88fAptLdFSlkXJ4jm0--37" value="Ler QInicial,QFinal,Gasolina" style="shape=parallelogram;perimeter=parallelogramPerimeter;whiteSpace=wrap;html=1;fixedSize=1;" parent="1" vertex="1">
          <mxGeometry x="285" y="130" width="150" height="60" as="geometry" />
        </mxCell>
        <mxCell id="W88fAptLdFSlkXJ4jm0--45" value="" style="edgeStyle=orthogonalEdgeStyle;rounded=0;orthogonalLoop=1;jettySize=auto;html=1;" parent="1" source="W88fAptLdFSlkXJ4jm0--42" target="W88fAptLdFSlkXJ4jm0--44" edge="1">
          <mxGeometry relative="1" as="geometry" />
        </mxCell>
        <mxCell id="W88fAptLdFSlkXJ4jm0--42" value="Distancia=QInicial.QFinal" style="rounded=0;whiteSpace=wrap;html=1;" parent="1" vertex="1">
          <mxGeometry x="287.5" y="240" width="145" height="60" as="geometry" />
        </mxCell>
        <mxCell id="W88fAptLdFSlkXJ4jm0--47" value="" style="edgeStyle=orthogonalEdgeStyle;rounded=0;orthogonalLoop=1;jettySize=auto;html=1;" parent="1" source="W88fAptLdFSlkXJ4jm0--44" target="W88fAptLdFSlkXJ4jm0--46" edge="1">
          <mxGeometry relative="1" as="geometry" />
        </mxCell>
        <mxCell id="W88fAptLdFSlkXJ4jm0--44" value="Gasolina/Distancia*100" style="rounded=0;whiteSpace=wrap;html=1;" parent="1" vertex="1">
          <mxGeometry x="295" y="340" width="130" height="60" as="geometry" />
        </mxCell>
        <mxCell id="W88fAptLdFSlkXJ4jm0--49" value="" style="edgeStyle=orthogonalEdgeStyle;rounded=0;orthogonalLoop=1;jettySize=auto;html=1;" parent="1" source="W88fAptLdFSlkXJ4jm0--46" target="W88fAptLdFSlkXJ4jm0--48" edge="1">
          <mxGeometry relative="1" as="geometry" />
        </mxCell>
        <mxCell id="W88fAptLdFSlkXJ4jm0--46" value="Escreve comsumo" style="shape=parallelogram;perimeter=parallelogramPerimeter;whiteSpace=wrap;html=1;fixedSize=1;" parent="1" vertex="1">
          <mxGeometry x="300" y="440" width="120" height="60" as="geometry" />
        </mxCell>
        <mxCell id="W88fAptLdFSlkXJ4jm0--48" value="Fim" style="ellipse;whiteSpace=wrap;html=1;" parent="1" vertex="1">
          <mxGeometry x="300" y="544.5" width="120" height="80" as="geometry" />
        </mxCell>
        <mxCell id="W88fAptLdFSlkXJ4jm0--52" value="" style="edgeStyle=orthogonalEdgeStyle;rounded=0;orthogonalLoop=1;jettySize=auto;html=1;" parent="1" source="W88fAptLdFSlkXJ4jm0--50" target="W88fAptLdFSlkXJ4jm0--51" edge="1">
          <mxGeometry relative="1" as="geometry" />
        </mxCell>
        <mxCell id="W88fAptLdFSlkXJ4jm0--50" value="Inicio" style="ellipse;whiteSpace=wrap;html=1;" parent="1" vertex="1">
          <mxGeometry x="530" y="16.88" width="120" height="70" as="geometry" />
        </mxCell>
        <mxCell id="W88fAptLdFSlkXJ4jm0--54" value="" style="edgeStyle=orthogonalEdgeStyle;rounded=0;orthogonalLoop=1;jettySize=auto;html=1;" parent="1" source="W88fAptLdFSlkXJ4jm0--51" target="W88fAptLdFSlkXJ4jm0--53" edge="1">
          <mxGeometry relative="1" as="geometry" />
        </mxCell>
        <mxCell id="W88fAptLdFSlkXJ4jm0--51" value="Ler Nota" style="shape=parallelogram;perimeter=parallelogramPerimeter;whiteSpace=wrap;html=1;fixedSize=1;" parent="1" vertex="1">
          <mxGeometry x="530" y="130" width="120" height="60" as="geometry" />
        </mxCell>
        <mxCell id="W88fAptLdFSlkXJ4jm0--56" style="edgeStyle=orthogonalEdgeStyle;rounded=0;orthogonalLoop=1;jettySize=auto;html=1;entryX=0.5;entryY=1;entryDx=0;entryDy=0;" parent="1" source="W88fAptLdFSlkXJ4jm0--53" target="W88fAptLdFSlkXJ4jm0--55" edge="1">
          <mxGeometry relative="1" as="geometry" />
        </mxCell>
        <mxCell id="W88fAptLdFSlkXJ4jm0--64" value="" style="edgeStyle=orthogonalEdgeStyle;rounded=0;orthogonalLoop=1;jettySize=auto;html=1;" parent="1" source="W88fAptLdFSlkXJ4jm0--53" target="W88fAptLdFSlkXJ4jm0--63" edge="1">
          <mxGeometry relative="1" as="geometry" />
        </mxCell>
        <mxCell id="W88fAptLdFSlkXJ4jm0--53" value="Nota&amp;gt;0&lt;div&gt;&amp;amp;&amp;amp;&lt;/div&gt;&lt;div&gt;Nota&amp;lt;20&lt;/div&gt;" style="rhombus;whiteSpace=wrap;html=1;" parent="1" vertex="1">
          <mxGeometry x="545" y="240" width="90" height="90" as="geometry" />
        </mxCell>
        <mxCell id="W88fAptLdFSlkXJ4jm0--57" style="edgeStyle=orthogonalEdgeStyle;rounded=0;orthogonalLoop=1;jettySize=auto;html=1;" parent="1" source="W88fAptLdFSlkXJ4jm0--55" target="W88fAptLdFSlkXJ4jm0--51" edge="1">
          <mxGeometry relative="1" as="geometry">
            <Array as="points">
              <mxPoint x="750" y="160" />
            </Array>
          </mxGeometry>
        </mxCell>
        <mxCell id="W88fAptLdFSlkXJ4jm0--55" value="Nota errada" style="shape=parallelogram;perimeter=parallelogramPerimeter;whiteSpace=wrap;html=1;fixedSize=1;" parent="1" vertex="1">
          <mxGeometry x="690" y="190" width="120" height="60" as="geometry" />
        </mxCell>
        <mxCell id="W88fAptLdFSlkXJ4jm0--58" value="Sim" style="text;html=1;align=center;verticalAlign=middle;whiteSpace=wrap;rounded=0;" parent="1" vertex="1">
          <mxGeometry x="580" y="330" width="60" height="30" as="geometry" />
        </mxCell>
        <mxCell id="W88fAptLdFSlkXJ4jm0--59" value="Nao" style="text;html=1;align=center;verticalAlign=middle;whiteSpace=wrap;rounded=0;" parent="1" vertex="1">
          <mxGeometry x="630" y="260" width="60" height="30" as="geometry" />
        </mxCell>
        <mxCell id="W88fAptLdFSlkXJ4jm0--68" style="edgeStyle=orthogonalEdgeStyle;rounded=0;orthogonalLoop=1;jettySize=auto;html=1;entryX=0.5;entryY=0;entryDx=0;entryDy=0;" parent="1" source="W88fAptLdFSlkXJ4jm0--63" target="W88fAptLdFSlkXJ4jm0--66" edge="1">
          <mxGeometry relative="1" as="geometry">
            <Array as="points">
              <mxPoint x="520" y="420" />
            </Array>
          </mxGeometry>
        </mxCell>
        <mxCell id="W88fAptLdFSlkXJ4jm0--69" style="edgeStyle=orthogonalEdgeStyle;rounded=0;orthogonalLoop=1;jettySize=auto;html=1;entryX=0.5;entryY=0;entryDx=0;entryDy=0;" parent="1" source="W88fAptLdFSlkXJ4jm0--63" target="W88fAptLdFSlkXJ4jm0--65" edge="1">
          <mxGeometry relative="1" as="geometry">
            <mxPoint x="660" y="480" as="targetPoint" />
            <Array as="points">
              <mxPoint x="660" y="420" />
            </Array>
          </mxGeometry>
        </mxCell>
        <mxCell id="W88fAptLdFSlkXJ4jm0--63" value="Nota&amp;gt;9,5" style="rhombus;whiteSpace=wrap;html=1;" parent="1" vertex="1">
          <mxGeometry x="550" y="380" width="80" height="80" as="geometry" />
        </mxCell>
        <mxCell id="W88fAptLdFSlkXJ4jm0--79" style="edgeStyle=orthogonalEdgeStyle;rounded=0;orthogonalLoop=1;jettySize=auto;html=1;entryX=1;entryY=0.5;entryDx=0;entryDy=0;" parent="1" source="W88fAptLdFSlkXJ4jm0--65" target="W88fAptLdFSlkXJ4jm0--77" edge="1">
          <mxGeometry relative="1" as="geometry" />
        </mxCell>
        <mxCell id="W88fAptLdFSlkXJ4jm0--65" value="Reprovado" style="shape=parallelogram;perimeter=parallelogramPerimeter;whiteSpace=wrap;html=1;fixedSize=1;" parent="1" vertex="1">
          <mxGeometry x="600" y="490" width="120" height="60" as="geometry" />
        </mxCell>
        <mxCell id="W88fAptLdFSlkXJ4jm0--66" value="Aprovado" style="shape=parallelogram;perimeter=parallelogramPerimeter;whiteSpace=wrap;html=1;fixedSize=1;" parent="1" vertex="1">
          <mxGeometry x="460" y="490" width="120" height="60" as="geometry" />
        </mxCell>
        <mxCell id="W88fAptLdFSlkXJ4jm0--70" value="SIm" style="text;html=1;align=center;verticalAlign=middle;whiteSpace=wrap;rounded=0;" parent="1" vertex="1">
          <mxGeometry x="500" y="390" width="60" height="30" as="geometry" />
        </mxCell>
        <mxCell id="W88fAptLdFSlkXJ4jm0--71" value="Nao" style="text;html=1;align=center;verticalAlign=middle;whiteSpace=wrap;rounded=0;" parent="1" vertex="1">
          <mxGeometry x="620" y="390" width="60" height="30" as="geometry" />
        </mxCell>
        <mxCell id="W88fAptLdFSlkXJ4jm0--74" value="Fim" style="ellipse;whiteSpace=wrap;html=1;" parent="1" vertex="1">
          <mxGeometry x="530" y="690" width="120" height="80" as="geometry" />
        </mxCell>
        <mxCell id="W88fAptLdFSlkXJ4jm0--78" value="" style="edgeStyle=orthogonalEdgeStyle;rounded=0;orthogonalLoop=1;jettySize=auto;html=1;" parent="1" source="W88fAptLdFSlkXJ4jm0--66" target="W88fAptLdFSlkXJ4jm0--77" edge="1">
          <mxGeometry relative="1" as="geometry">
            <mxPoint x="520" y="550" as="sourcePoint" />
            <mxPoint x="590" y="690" as="targetPoint" />
            <Array as="points">
              <mxPoint x="520" y="625" />
            </Array>
          </mxGeometry>
        </mxCell>
        <mxCell id="W88fAptLdFSlkXJ4jm0--80" value="" style="edgeStyle=orthogonalEdgeStyle;rounded=0;orthogonalLoop=1;jettySize=auto;html=1;" parent="1" source="W88fAptLdFSlkXJ4jm0--77" target="W88fAptLdFSlkXJ4jm0--74" edge="1">
          <mxGeometry relative="1" as="geometry" />
        </mxCell>
        <mxCell id="W88fAptLdFSlkXJ4jm0--77" value="" style="ellipse;whiteSpace=wrap;html=1;aspect=fixed;" parent="1" vertex="1">
          <mxGeometry x="575" y="610" width="30" height="30" as="geometry" />
        </mxCell>
        <mxCell id="W88fAptLdFSlkXJ4jm0--83" value="" style="edgeStyle=orthogonalEdgeStyle;rounded=0;orthogonalLoop=1;jettySize=auto;html=1;" parent="1" source="W88fAptLdFSlkXJ4jm0--81" target="W88fAptLdFSlkXJ4jm0--82" edge="1">
          <mxGeometry relative="1" as="geometry" />
        </mxCell>
        <mxCell id="W88fAptLdFSlkXJ4jm0--81" value="Inicio" style="ellipse;whiteSpace=wrap;html=1;" parent="1" vertex="1">
          <mxGeometry x="950" y="16.879999999999995" width="120" height="80" as="geometry" />
        </mxCell>
        <mxCell id="W88fAptLdFSlkXJ4jm0--86" value="" style="edgeStyle=orthogonalEdgeStyle;rounded=0;orthogonalLoop=1;jettySize=auto;html=1;" parent="1" source="W88fAptLdFSlkXJ4jm0--82" target="W88fAptLdFSlkXJ4jm0--85" edge="1">
          <mxGeometry relative="1" as="geometry" />
        </mxCell>
        <mxCell id="W88fAptLdFSlkXJ4jm0--82" value="Ler N1,N2,N3" style="shape=parallelogram;perimeter=parallelogramPerimeter;whiteSpace=wrap;html=1;fixedSize=1;" parent="1" vertex="1">
          <mxGeometry x="950" y="150" width="120" height="60" as="geometry" />
        </mxCell>
        <mxCell id="W88fAptLdFSlkXJ4jm0--104" value="" style="edgeStyle=orthogonalEdgeStyle;rounded=0;orthogonalLoop=1;jettySize=auto;html=1;" parent="1" source="W88fAptLdFSlkXJ4jm0--85" target="W88fAptLdFSlkXJ4jm0--103" edge="1">
          <mxGeometry relative="1" as="geometry" />
        </mxCell>
        <mxCell id="W88fAptLdFSlkXJ4jm0--107" value="" style="edgeStyle=orthogonalEdgeStyle;rounded=0;orthogonalLoop=1;jettySize=auto;html=1;" parent="1" source="W88fAptLdFSlkXJ4jm0--85" target="W88fAptLdFSlkXJ4jm0--106" edge="1">
          <mxGeometry relative="1" as="geometry" />
        </mxCell>
        <mxCell id="W88fAptLdFSlkXJ4jm0--85" value="N1&amp;gt;N2&lt;div&gt;&amp;amp;&amp;amp;&lt;/div&gt;&lt;div&gt;N1&amp;gt;N3&lt;/div&gt;" style="rhombus;whiteSpace=wrap;html=1;" parent="1" vertex="1">
          <mxGeometry x="970" y="260" width="80" height="80" as="geometry" />
        </mxCell>
        <mxCell id="W88fAptLdFSlkXJ4jm0--119" style="edgeStyle=orthogonalEdgeStyle;rounded=0;orthogonalLoop=1;jettySize=auto;html=1;entryX=0;entryY=0.5;entryDx=0;entryDy=0;" parent="1" source="W88fAptLdFSlkXJ4jm0--103" target="W88fAptLdFSlkXJ4jm0--118" edge="1">
          <mxGeometry relative="1" as="geometry">
            <Array as="points">
              <mxPoint x="1010" y="565" />
            </Array>
          </mxGeometry>
        </mxCell>
        <mxCell id="W88fAptLdFSlkXJ4jm0--103" value="Escreve N1" style="shape=parallelogram;perimeter=parallelogramPerimeter;whiteSpace=wrap;html=1;fixedSize=1;" parent="1" vertex="1">
          <mxGeometry x="950" y="410" width="120" height="60" as="geometry" />
        </mxCell>
        <mxCell id="W88fAptLdFSlkXJ4jm0--105" value="Sim" style="text;html=1;align=center;verticalAlign=middle;whiteSpace=wrap;rounded=0;" parent="1" vertex="1">
          <mxGeometry x="1000" y="340" width="60" height="30" as="geometry" />
        </mxCell>
        <mxCell id="W88fAptLdFSlkXJ4jm0--112" value="" style="edgeStyle=orthogonalEdgeStyle;rounded=0;orthogonalLoop=1;jettySize=auto;html=1;" parent="1" source="W88fAptLdFSlkXJ4jm0--106" target="W88fAptLdFSlkXJ4jm0--108" edge="1">
          <mxGeometry relative="1" as="geometry" />
        </mxCell>
        <mxCell id="W88fAptLdFSlkXJ4jm0--106" value="N2&amp;gt;N3" style="rhombus;whiteSpace=wrap;html=1;" parent="1" vertex="1">
          <mxGeometry x="1120" y="260" width="80" height="80" as="geometry" />
        </mxCell>
        <mxCell id="W88fAptLdFSlkXJ4jm0--120" value="" style="edgeStyle=orthogonalEdgeStyle;rounded=0;orthogonalLoop=1;jettySize=auto;html=1;" parent="1" source="W88fAptLdFSlkXJ4jm0--108" target="W88fAptLdFSlkXJ4jm0--118" edge="1">
          <mxGeometry relative="1" as="geometry" />
        </mxCell>
        <mxCell id="W88fAptLdFSlkXJ4jm0--108" value="Escreve N2" style="shape=parallelogram;perimeter=parallelogramPerimeter;whiteSpace=wrap;html=1;fixedSize=1;" parent="1" vertex="1">
          <mxGeometry x="1100" y="410" width="120" height="60" as="geometry" />
        </mxCell>
        <mxCell id="W88fAptLdFSlkXJ4jm0--111" value="Nao" style="text;html=1;align=center;verticalAlign=middle;whiteSpace=wrap;rounded=0;" parent="1" vertex="1">
          <mxGeometry x="1050" y="280" width="60" height="30" as="geometry" />
        </mxCell>
        <mxCell id="W88fAptLdFSlkXJ4jm0--113" value="Sim" style="text;html=1;align=center;verticalAlign=middle;whiteSpace=wrap;rounded=0;" parent="1" vertex="1">
          <mxGeometry x="1150" y="340" width="60" height="30" as="geometry" />
        </mxCell>
        <mxCell id="W88fAptLdFSlkXJ4jm0--121" style="edgeStyle=orthogonalEdgeStyle;rounded=0;orthogonalLoop=1;jettySize=auto;html=1;entryX=1;entryY=0.5;entryDx=0;entryDy=0;" parent="1" source="W88fAptLdFSlkXJ4jm0--114" target="W88fAptLdFSlkXJ4jm0--118" edge="1">
          <mxGeometry relative="1" as="geometry">
            <Array as="points">
              <mxPoint x="1310" y="565" />
            </Array>
          </mxGeometry>
        </mxCell>
        <mxCell id="W88fAptLdFSlkXJ4jm0--114" value="Escreve N3" style="shape=parallelogram;perimeter=parallelogramPerimeter;whiteSpace=wrap;html=1;fixedSize=1;" parent="1" vertex="1">
          <mxGeometry x="1250" y="410" width="120" height="60" as="geometry" />
        </mxCell>
        <mxCell id="W88fAptLdFSlkXJ4jm0--116" style="edgeStyle=orthogonalEdgeStyle;rounded=0;orthogonalLoop=1;jettySize=auto;html=1;entryX=0.583;entryY=0.167;entryDx=0;entryDy=0;entryPerimeter=0;" parent="1" source="W88fAptLdFSlkXJ4jm0--106" target="W88fAptLdFSlkXJ4jm0--114" edge="1">
          <mxGeometry relative="1" as="geometry" />
        </mxCell>
        <mxCell id="W88fAptLdFSlkXJ4jm0--117" value="Nao" style="text;html=1;align=center;verticalAlign=middle;whiteSpace=wrap;rounded=0;" parent="1" vertex="1">
          <mxGeometry x="1190" y="280" width="60" height="30" as="geometry" />
        </mxCell>
        <mxCell id="W88fAptLdFSlkXJ4jm0--123" value="" style="edgeStyle=orthogonalEdgeStyle;rounded=0;orthogonalLoop=1;jettySize=auto;html=1;" parent="1" source="W88fAptLdFSlkXJ4jm0--118" target="W88fAptLdFSlkXJ4jm0--122" edge="1">
          <mxGeometry relative="1" as="geometry" />
        </mxCell>
        <mxCell id="W88fAptLdFSlkXJ4jm0--118" value="" style="ellipse;whiteSpace=wrap;html=1;aspect=fixed;" parent="1" vertex="1">
          <mxGeometry x="1145" y="550" width="30" height="30" as="geometry" />
        </mxCell>
        <mxCell id="W88fAptLdFSlkXJ4jm0--122" value="Fim" style="ellipse;whiteSpace=wrap;html=1;" parent="1" vertex="1">
          <mxGeometry x="1100" y="640" width="120" height="80" as="geometry" />
        </mxCell>
        <mxCell id="W88fAptLdFSlkXJ4jm0--126" value="" style="edgeStyle=orthogonalEdgeStyle;rounded=0;orthogonalLoop=1;jettySize=auto;html=1;" parent="1" source="W88fAptLdFSlkXJ4jm0--124" target="W88fAptLdFSlkXJ4jm0--125" edge="1">
          <mxGeometry relative="1" as="geometry" />
        </mxCell>
        <mxCell id="W88fAptLdFSlkXJ4jm0--124" value="Inicio" style="ellipse;whiteSpace=wrap;html=1;" parent="1" vertex="1">
          <mxGeometry x="1534" y="20" width="120" height="80" as="geometry" />
        </mxCell>
        <mxCell id="W88fAptLdFSlkXJ4jm0--128" value="" style="edgeStyle=orthogonalEdgeStyle;rounded=0;orthogonalLoop=1;jettySize=auto;html=1;" parent="1" source="W88fAptLdFSlkXJ4jm0--125" edge="1">
          <mxGeometry relative="1" as="geometry">
            <mxPoint x="1594" y="280" as="targetPoint" />
          </mxGeometry>
        </mxCell>
        <mxCell id="W88fAptLdFSlkXJ4jm0--125" value="Total=0&lt;div&gt;Parcela=0&lt;/div&gt;" style="rounded=0;whiteSpace=wrap;html=1;" parent="1" vertex="1">
          <mxGeometry x="1534" y="170" width="120" height="60" as="geometry" />
        </mxCell>
        <mxCell id="W88fAptLdFSlkXJ4jm0--136" value="" style="edgeStyle=orthogonalEdgeStyle;rounded=0;orthogonalLoop=1;jettySize=auto;html=1;" parent="1" source="W88fAptLdFSlkXJ4jm0--134" target="W88fAptLdFSlkXJ4jm0--135" edge="1">
          <mxGeometry relative="1" as="geometry" />
        </mxCell>
        <mxCell id="W88fAptLdFSlkXJ4jm0--134" value="Ler Parcela" style="shape=parallelogram;perimeter=parallelogramPerimeter;whiteSpace=wrap;html=1;fixedSize=1;" parent="1" vertex="1">
          <mxGeometry x="1534" y="280" width="120" height="60" as="geometry" />
        </mxCell>
        <mxCell id="W88fAptLdFSlkXJ4jm0--139" value="" style="edgeStyle=orthogonalEdgeStyle;rounded=0;orthogonalLoop=1;jettySize=auto;html=1;" parent="1" source="W88fAptLdFSlkXJ4jm0--135" target="W88fAptLdFSlkXJ4jm0--138" edge="1">
          <mxGeometry relative="1" as="geometry" />
        </mxCell>
        <mxCell id="W88fAptLdFSlkXJ4jm0--135" value="Total=Total+Parcela&lt;div&gt;&amp;amp;&amp;amp;&lt;/div&gt;&lt;div&gt;Parcela=Parcela+1&lt;/div&gt;" style="rounded=0;whiteSpace=wrap;html=1;" parent="1" vertex="1">
          <mxGeometry x="1534" y="400" width="120" height="60" as="geometry" />
        </mxCell>
        <mxCell id="W88fAptLdFSlkXJ4jm0--141" value="" style="edgeStyle=orthogonalEdgeStyle;rounded=0;orthogonalLoop=1;jettySize=auto;html=1;" parent="1" source="W88fAptLdFSlkXJ4jm0--138" target="W88fAptLdFSlkXJ4jm0--140" edge="1">
          <mxGeometry relative="1" as="geometry" />
        </mxCell>
        <mxCell id="W88fAptLdFSlkXJ4jm0--143" style="edgeStyle=orthogonalEdgeStyle;rounded=0;orthogonalLoop=1;jettySize=auto;html=1;entryX=1;entryY=0.5;entryDx=0;entryDy=0;" parent="1" source="W88fAptLdFSlkXJ4jm0--138" target="W88fAptLdFSlkXJ4jm0--134" edge="1">
          <mxGeometry relative="1" as="geometry">
            <Array as="points">
              <mxPoint x="1730" y="560" />
              <mxPoint x="1730" y="310" />
            </Array>
          </mxGeometry>
        </mxCell>
        <mxCell id="W88fAptLdFSlkXJ4jm0--138" value="Total&amp;lt;=1000" style="rhombus;whiteSpace=wrap;html=1;" parent="1" vertex="1">
          <mxGeometry x="1554" y="520" width="80" height="80" as="geometry" />
        </mxCell>
        <mxCell id="W88fAptLdFSlkXJ4jm0--146" value="" style="edgeStyle=orthogonalEdgeStyle;rounded=0;orthogonalLoop=1;jettySize=auto;html=1;" parent="1" source="W88fAptLdFSlkXJ4jm0--140" target="W88fAptLdFSlkXJ4jm0--145" edge="1">
          <mxGeometry relative="1" as="geometry" />
        </mxCell>
        <mxCell id="W88fAptLdFSlkXJ4jm0--140" value="media = total / parcelas&quot;" style="rounded=0;whiteSpace=wrap;html=1;" parent="1" vertex="1">
          <mxGeometry x="1526" y="670" width="136" height="60" as="geometry" />
        </mxCell>
        <mxCell id="W88fAptLdFSlkXJ4jm0--142" value="Sim" style="text;html=1;align=center;verticalAlign=middle;whiteSpace=wrap;rounded=0;" parent="1" vertex="1">
          <mxGeometry x="1580" y="600" width="60" height="30" as="geometry" />
        </mxCell>
        <mxCell id="W88fAptLdFSlkXJ4jm0--144" value="Nao" style="text;html=1;align=center;verticalAlign=middle;whiteSpace=wrap;rounded=0;" parent="1" vertex="1">
          <mxGeometry x="1630" y="530" width="60" height="30" as="geometry" />
        </mxCell>
        <mxCell id="W88fAptLdFSlkXJ4jm0--148" value="" style="edgeStyle=orthogonalEdgeStyle;rounded=0;orthogonalLoop=1;jettySize=auto;html=1;" parent="1" source="W88fAptLdFSlkXJ4jm0--145" target="W88fAptLdFSlkXJ4jm0--147" edge="1">
          <mxGeometry relative="1" as="geometry" />
        </mxCell>
        <mxCell id="W88fAptLdFSlkXJ4jm0--145" value="Escreve media" style="shape=parallelogram;perimeter=parallelogramPerimeter;whiteSpace=wrap;html=1;fixedSize=1;" parent="1" vertex="1">
          <mxGeometry x="1534" y="790" width="120" height="60" as="geometry" />
        </mxCell>
        <mxCell id="W88fAptLdFSlkXJ4jm0--147" value="Fim" style="ellipse;whiteSpace=wrap;html=1;" parent="1" vertex="1">
          <mxGeometry x="1534" y="900" width="120" height="80" as="geometry" />
        </mxCell>
        <mxCell id="W88fAptLdFSlkXJ4jm0--151" value="" style="edgeStyle=orthogonalEdgeStyle;rounded=0;orthogonalLoop=1;jettySize=auto;html=1;" parent="1" source="W88fAptLdFSlkXJ4jm0--149" target="W88fAptLdFSlkXJ4jm0--150" edge="1">
          <mxGeometry relative="1" as="geometry" />
        </mxCell>
        <mxCell id="W88fAptLdFSlkXJ4jm0--149" value="Inicio" style="ellipse;whiteSpace=wrap;html=1;" parent="1" vertex="1">
          <mxGeometry x="1947" y="20" width="120" height="80" as="geometry" />
        </mxCell>
        <mxCell id="W88fAptLdFSlkXJ4jm0--153" value="" style="edgeStyle=orthogonalEdgeStyle;rounded=0;orthogonalLoop=1;jettySize=auto;html=1;" parent="1" source="W88fAptLdFSlkXJ4jm0--150" target="W88fAptLdFSlkXJ4jm0--152" edge="1">
          <mxGeometry relative="1" as="geometry" />
        </mxCell>
        <mxCell id="W88fAptLdFSlkXJ4jm0--150" value="Quantos Numeros quer Somar?" style="shape=parallelogram;perimeter=parallelogramPerimeter;whiteSpace=wrap;html=1;fixedSize=1;" parent="1" vertex="1">
          <mxGeometry x="1927.25" y="150" width="159.5" height="70" as="geometry" />
        </mxCell>
        <mxCell id="W88fAptLdFSlkXJ4jm0--161" value="" style="edgeStyle=orthogonalEdgeStyle;rounded=0;orthogonalLoop=1;jettySize=auto;html=1;" parent="1" source="W88fAptLdFSlkXJ4jm0--152" target="W88fAptLdFSlkXJ4jm0--159" edge="1">
          <mxGeometry relative="1" as="geometry" />
        </mxCell>
        <mxCell id="W88fAptLdFSlkXJ4jm0--152" value="Total=0&lt;div&gt;Contador=0&lt;/div&gt;" style="rounded=0;whiteSpace=wrap;html=1;" parent="1" vertex="1">
          <mxGeometry x="1947" y="280" width="120" height="60" as="geometry" />
        </mxCell>
        <mxCell id="W88fAptLdFSlkXJ4jm0--163" value="" style="edgeStyle=orthogonalEdgeStyle;rounded=0;orthogonalLoop=1;jettySize=auto;html=1;" parent="1" source="W88fAptLdFSlkXJ4jm0--159" target="W88fAptLdFSlkXJ4jm0--162" edge="1">
          <mxGeometry relative="1" as="geometry" />
        </mxCell>
        <mxCell id="W88fAptLdFSlkXJ4jm0--159" value="Ler numero" style="rounded=0;whiteSpace=wrap;html=1;" parent="1" vertex="1">
          <mxGeometry x="1947" y="395" width="120" height="70" as="geometry" />
        </mxCell>
        <mxCell id="W88fAptLdFSlkXJ4jm0--165" value="" style="edgeStyle=orthogonalEdgeStyle;rounded=0;orthogonalLoop=1;jettySize=auto;html=1;" parent="1" source="W88fAptLdFSlkXJ4jm0--162" edge="1">
          <mxGeometry relative="1" as="geometry">
            <mxPoint x="2007" y="630" as="targetPoint" />
          </mxGeometry>
        </mxCell>
        <mxCell id="W88fAptLdFSlkXJ4jm0--162" value="Total=Total+Numero&lt;div&gt;Contador=Contador+1&lt;/div&gt;" style="rounded=0;whiteSpace=wrap;html=1;" parent="1" vertex="1">
          <mxGeometry x="1940.5" y="520" width="133" height="60" as="geometry" />
        </mxCell>
      </root>
    </mxGraphModel>
  </diagram>
</mxfile>
